{
  "accessors": [
    {
      "bufferView": 2,
      "componentType": 5126,
      "count": 2598,
      "max": [
        -268.6661682128906,
        -124.2735366821289,
        129.59112548828125
      ],
      "min": [
        -280.3141784667969,
        -274.0686950683594,
        -110.94786071777344
      ],
      "type": "VEC3"
    },
    {
      "bufferView": 2,
      "byteOffset": 31176,
      "componentType": 5126,
      "count": 2598,
      "max": [
        1.0,
        1.0,
        1.0
      ],
      "min": [
        -1.0,
        -1.0,
        -1.0
      ],
      "type": "VEC3"
    },
    {
      "bufferView": 1,
      "componentType": 5126,
      "count": 2598,
      "max": [
        1.0,
        1.0
      ],
      "min": [
        0.0,
        0.0
      ],
      "type": "VEC2"
    },
    {
      "bufferView": 0,
      "componentType": 5125,
      "count": 12744,
      "type": "SCALAR"
    },
    {
      "bufferView": 2,
      "byteOffset": 62352,
      "componentType": 5126,
      "count": 706,
      "max": [
        -193.74586486816406,
        -152.5458984375,
        36.311744689941406
      ],
      "min": [
        -197.74586486816406,
        -161.60760498046875,
        -18.39809799194336
      ],
      "type": "VEC3"
    },
    {
      "bufferView": 2,
      "byteOffset": 70824,
      "componentType": 5126,
      "count": 706,
      "max": [
        1.0,
        0.9997035264968872,
        0.999829113483429
      ],
      "min": [
        -1.0,
        -0.9994166493415833,
        -0.994378924369812
      ],
      "type": "VEC3"
    },
    {
      "bufferView": 1,
      "byteOffset": 20784,
      "componentType": 5126,
      "count": 706,
      "max": [
        1.0,
        1.0
      ],
      "min": [
        0.0,
        0.0
      ],
      "type": "VEC2"
    },
    {
      "bufferView": 0,
      "byteOffset": 50976,
      "componentType": 5125,
      "count": 3360,
      "type": "SCALAR"
    },
    {
      "bufferView": 2,
      "byteOffset": 79296,
      "componentType": 5126,
      "count": 121,
      "max": [
        95.33737182617188,
        -285.1775817871094,
        357.7718200683594
      ],
      "min": [
        -644.3176879882813,
        -285.1775817871094,
        -339.1285705566406
      ],
      "type": "VEC3"
    },
    {
      "bufferView": 2,
      "byteOffset": 80748,
      "componentType": 5126,
      "count": 121,
      "max": [
        0.0,
        1.0,
        -0.0
      ],
      "min": [
        0.0,
        1.0,
        -0.0
      ],
      "type": "VEC3"
    },
    {
      "bufferView": 1,
      "byteOffset": 26432,
      "componentType": 5126,
      "count": 121,
      "max": [
        1.0,
        1.0
      ],
      "min": [
        0.0,
        0.0
      ],
      "type": "VEC2"
    },
    {
      "bufferView": 0,
      "byteOffset": 64416,
      "componentType": 5125,
      "count": 600,
      "type": "SCALAR"
    },
    {
      "bufferView": 2,
      "byteOffset": 82200,
      "componentType": 5126,
      "count": 1459,
      "max": [
        -186.2938995361328,
        -35.39656066894531,
        84.34586334228516
      ],
      "min": [
        -362.6864318847656,
        -72.06398010253906,
        -83.41341400146484
      ],
      "type": "VEC3"
    },
    {
      "bufferView": 2,
      "byteOffset": 99708,
      "componentType": 5126,
      "count": 1459,
      "max": [
        0.9999121427536011,
        0.9988579750061035,
        0.9984402656555176
      ],
      "min": [
        -0.9953514337539673,
        -0.9999859929084778,
        -0.9970107674598694
      ],
      "type": "VEC3"
    },
    {
      "bufferView": 1,
      "byteOffset": 27400,
      "componentType": 5126,
      "count": 1459,
      "max": [
        1.0,
        1.0
      ],
      "min": [
        0.0,
        0.0
      ],
      "type": "VEC2"
    },
    {
      "bufferView": 0,
      "byteOffset": 66816,
      "componentType": 5125,
      "count": 6336,
      "type": "SCALAR"
    },
    {
      "bufferView": 2,
      "byteOffset": 117216,
      "componentType": 5126,
      "count": 65532,
      "max": [
        -262.4216003417969,
        -180.33151245117188,
        -82.35840606689453
      ],
      "min": [
        -283.02703857421875,
        -206.9938507080078,
        -106.08867645263672
      ],
      "type": "VEC3"
    },
    {
      "bufferView": 2,
      "byteOffset": 903600,
      "componentType": 5126,
      "count": 65532,
      "max": [
        0.9997252225875854,
        0.9996911883354187,
        0.9999263286590576
      ],
      "min": [
        -0.9999584555625916,
        -0.9997884631156921,
        -0.9998295307159424
      ],
      "type": "VEC3"
    },
    {
      "bufferView": 1,
      "byteOffset": 39072,
      "componentType": 5126,
      "count": 65532,
      "max": [
        0.9998612999916077,
        0.9803125262260437
      ],
      "min": [
        0.00016139999206643552,
        0.0019255876541137695
      ],
      "type": "VEC2"
    },
    {
      "bufferView": 0,
      "byteOffset": 92160,
      "componentType": 5125,
      "count": 367398,
      "type": "SCALAR"
    },
    {
      "bufferView": 2,
      "byteOffset": 1689984,
      "componentType": 5126,
      "count": 65532,
      "max": [
        -260.1932373046875,
        -180.49794006347656,
        124.5724105834961
      ],
      "min": [
        -282.9541931152344,
        -206.96006774902344,
        -106.14571380615234
      ],
      "type": "VEC3"
    },
    {
      "bufferView": 2,
      "byteOffset": 2476368,
      "componentType": 5126,
      "count": 65532,
      "max": [
        0.999696671962738,
        0.9998764991760254,
        0.9999263286590576
      ],
      "min": [
        -1.0,
        -0.9995819926261902,
        -0.9999085664749146
      ],
      "type": "VEC3"
    },
    {
      "bufferView": 1,
      "byteOffset": 563328,
      "componentType": 5126,
      "count": 65532,
      "max": [
        0.9996721148490906,
        0.9978176355361938
      ],
      "min": [
        0.0006905666668899357,
        0.0019255876541137695
      ],
      "type": "VEC2"
    },
    {
      "bufferView": 0,
      "byteOffset": 1561752,
      "componentType": 5125,
      "count": 357075,
      "type": "SCALAR"
    },
    {
      "bufferView": 2,
      "byteOffset": 3262752,
      "componentType": 5126,
      "count": 65532,
      "max": [
        -261.35986328125,
        -180.98558044433594,
        124.57190704345703
      ],
      "min": [
        -283.02703857421875,
        -209.77906799316406,
        104.30669403076172
      ],
      "type": "VEC3"
    },
    {
      "bufferView": 2,
      "byteOffset": 4049136,
      "componentType": 5126,
      "count": 65532,
      "max": [
        0.9997251629829407,
        0.999992847442627,
        0.9999690055847168
      ],
      "min": [
        -1.0,
        -0.9998821020126343,
        -0.9999555349349976
      ],
      "type": "VEC3"
    },
    {
      "bufferView": 1,
      "byteOffset": 1087584,
      "componentType": 5126,
      "count": 65532,
      "max": [
        0.9996721148490906,
        0.9978176355361938
      ],
      "min": [
        0.00033301394432783127,
        0.0019309520721435547
      ],
      "type": "VEC2"
    },
    {
      "bufferView": 0,
      "byteOffset": 2990052,
      "componentType": 5125,
      "count": 369390,
      "type": "SCALAR"
    },
    {
      "bufferView": 2,
      "byteOffset": 4835520,
      "componentType": 5126,
      "count": 53484,
      "max": [
        -260.1932373046875,
        -181.06155395507813,
        124.26070404052734
      ],
      "min": [
        -283.02703857421875,
        -209.49664306640625,
        -105.48961639404297
      ],
      "type": "VEC3"
    },
    {
      "bufferView": 2,
      "byteOffset": 5477328,
      "componentType": 5126,
      "count": 53484,
      "max": [
        0.9996699690818787,
        0.999992847442627,
        0.9999566674232483
      ],
      "min": [
        -0.9999709129333496,
        -0.9998292922973633,
        -0.9999555349349976
      ],
      "type": "VEC3"
    },
    {
      "bufferView": 1,
      "byteOffset": 1611840,
      "componentType": 5126,
      "count": 53484,
      "max": [
        0.9998612999916077,
        0.9931892156600952
      ],
      "min": [
        0.00016139999206643552,
        0.004318833351135254
      ],
      "type": "VEC2"
    },
    {
      "bufferView": 0,
      "byteOffset": 4467612,
      "componentType": 5125,
      "count": 275481,
      "type": "SCALAR"
    },
    {
      "bufferView": 2,
      "byteOffset": 6119136,
      "componentType": 5126,
      "count": 5920,
      "max": [
        -243.7489471435547,
        -258.67840576171875,
        53.68321228027344
      ],
      "min": [
        -284.47088623046875,
        -284.7807922363281,
        -25.599576950073242
      ],
      "type": "VEC3"
    },
    {
      "bufferView": 2,
      "byteOffset": 6190176,
      "componentType": 5126,
      "count": 5920,
      "max": [
        0.998617947101593,
        1.0,
        0.9999904036521912
      ],
      "min": [
        -0.996996283531189,
        -0.9980364441871643,
        -0.9999904632568359
      ],
      "type": "VEC3"
    },
    {
      "bufferView": 1,
      "byteOffset": 2039712,
      "componentType": 5126,
      "count": 5920,
      "max": [
        0.9976623058319092,
        0.9671177268028259
      ],
      "min": [
        0.0023376676253974438,
        0.018569588661193848
      ],
      "type": "VEC2"
    },
    {
      "bufferView": 0,
      "byteOffset": 5569536,
      "componentType": 5125,
      "count": 35496,
      "type": "SCALAR"
    },
    {
      "bufferView": 2,
      "byteOffset": 6261216,
      "componentType": 5126,
      "count": 2459,
      "max": [
        -194.321533203125,
        -49.41591262817383,
        104.62068939208984
      ],
      "min": [
        -375.9080505371094,
        -226.07171630859375,
        -85.97742462158203
      ],
      "type": "VEC3"
    },
    {
      "bufferView": 2,
      "byteOffset": 6290724,
      "componentType": 5126,
      "count": 2459,
      "max": [
        0.9999862313270569,
        1.0,
        1.0
      ],
      "min": [
        -0.9984827637672424,
        -0.999995768070221,
        -1.0
      ],
      "type": "VEC3"
    },
    {
      "bufferView": 1,
      "byteOffset": 2087072,
      "componentType": 5126,
      "count": 2459,
      "max": [
        1.0,
        0.9609375
      ],
      "min": [
        0.0,
        0.0390625
      ],
      "type": "VEC2"
    },
    {
      "bufferView": 0,
      "byteOffset": 5711520,
      "componentType": 5125,
      "count": 13392,
      "type": "SCALAR"
    },
    {
      "bufferView": 2,
      "byteOffset": 6320232,
      "componentType": 5126,
      "count": 4146,
      "max": [
        -196.78213500976563,
        -75.60807037353516,
        46.16370391845703
      ],
      "min": [
        -201.33563232421875,
        -96.05046081542969,
        -28.7363338470459
      ],
      "type": "VEC3"
    },
    {
      "bufferView": 2,
      "byteOffset": 6369984,
      "componentType": 5126,
      "count": 4146,
      "max": [
        1.0,
        1.0,
        1.0
      ],
      "min": [
        -1.0,
        -1.0,
        -1.0
      ],
      "type": "VEC3"
    },
    {
      "bufferView": 1,
      "byteOffset": 2106744,
      "componentType": 5126,
      "count": 4146,
      "max": [
        1.0,
        0.9609375
      ],
      "min": [
        0.0,
        0.0390625
      ],
      "type": "VEC2"
    },
    {
      "bufferView": 0,
      "byteOffset": 5765088,
      "componentType": 5125,
      "count": 23040,
      "type": "SCALAR"
    },
    {
      "bufferView": 2,
      "byteOffset": 6419736,
      "componentType": 5126,
      "count": 4146,
      "max": [
        -191.63259887695313,
        -98.22970581054688,
        38.1033935546875
      ],
      "min": [
        -196.18609619140625,
        -118.6720962524414,
        -20.95108413696289
      ],
      "type": "VEC3"
    },
    {
      "bufferView": 2,
      "byteOffset": 6469488,
      "componentType": 5126,
      "count": 4146,
      "max": [
        1.0,
        1.0,
        1.0
      ],
      "min": [
        -1.0,
        -1.0,
        -1.0
      ],
      "type": "VEC3"
    },
    {
      "bufferView": 1,
      "byteOffset": 2139912,
      "componentType": 5126,
      "count": 4146,
      "max": [
        1.0,
        0.9609375
      ],
      "min": [
        0.0,
        0.0390625
      ],
      "type": "VEC2"
    },
    {
      "bufferView": 0,
      "byteOffset": 5857248,
      "componentType": 5125,
      "count": 23040,
      "type": "SCALAR"
    },
    {
      "bufferView": 2,
      "byteOffset": 6519240,
      "componentType": 5126,
      "count": 4146,
      "max": [
        -192.83734130859375,
        -90.24485778808594,
        45.50931930541992
      ],
      "min": [
        -200.99771118164063,
        -126.87995910644531,
        -27.494203567504883
      ],
      "type": "VEC3"
    },
    {
      "bufferView": 2,
      "byteOffset": 6568992,
      "componentType": 5126,
      "count": 4146,
      "max": [
        1.0,
        1.0,
        1.0
      ],
      "min": [
        -1.0,
        -1.0,
        -1.0
      ],
      "type": "VEC3"
    },
    {
      "bufferView": 1,
      "byteOffset": 2173080,
      "componentType": 5126,
      "count": 4146,
      "max": [
        1.0,
        0.9609375
      ],
      "min": [
        0.0,
        0.0390625
      ],
      "type": "VEC2"
    },
    {
      "bufferView": 0,
      "byteOffset": 5949408,
      "componentType": 5125,
      "count": 23040,
      "type": "SCALAR"
    }
  ],
  "asset": {
    "extras": {
      "author": "Seyed Mohsen (https://sketchfab.com/Seyed.Mohsen)",
      "license": "SKETCHFAB Standard (https://sketchfab.com/licenses)",
      "source": "https://sketchfab.com/3d-models/tomato-character-96574bc6b2f74b0791228756255b7fe0",
      "title": "Tomato character"
    },
    "generator": "Sketchfab-15.63.0",
    "version": "2.0"
  },
  "bufferViews": [
    {
      "buffer": 0,
      "byteLength": 6041568,
      "name": "floatBufferViews",
      "target": 34963
    },
    {
      "buffer": 0,
      "byteLength": 2206248,
      "byteOffset": 6041568,
      "byteStride": 8,
      "name": "floatBufferViews",
      "target": 34962
    },
    {
      "buffer": 0,
      "byteLength": 6618744,
      "byteOffset": 8247816,
      "byteStride": 12,
      "name": "floatBufferViews",
      "target": 34962
    }
  ],
  "buffers": [
    {
      "byteLength": 14866560,
      "uri": "scene.bin"
    }
  ],
  "materials": [
    {
      "doubleSided": true,
      "name": "LEG_AND_HAND",
      "pbrMetallicRoughness": {
        "baseColorFactor": [
          0.0,
          0.0,
          0.0,
          1.0
        ],
        "metallicFactor": 0.0,
        "roughnessFactor": 0.9524317153998911
      }
    },
    {
      "doubleSided": true,
      "name": "MOTHE",
      "pbrMetallicRoughness": {
        "baseColorFactor": [
          0.0,
          0.0,
          0.0,
          1.0
        ],
        "metallicFactor": 0.0,
        "roughnessFactor": 0.9524317153998911
      }
    },
    {
      "doubleSided": true,
      "name": "material",
      "pbrMetallicRoughness": {
        "baseColorFactor": [
          0.0027001062669048037,
          0.012518225358363446,
          0.00035459814997962065,
          1.0
        ],
        "metallicFactor": 0.0,
        "roughnessFactor": 0.9524317153998911
      }
    },
    {
      "doubleSided": true,
      "name": "GEERN_PART",
      "pbrMetallicRoughness": {
        "baseColorFactor": [
          0.01691639463021851,
          0.15766773041875703,
          0.0042793104181273805,
          1.0
        ],
        "metallicFactor": 0.0,
        "roughnessFactor": 0.9702064471883006
      }
    },
    {
      "doubleSided": true,
      "name": "gloves",
      "pbrMetallicRoughness": {
        "baseColorFactor": [
          0.8,
          0.8,
          0.8,
          1.0
        ],
        "metallicFactor": 0.0,
        "roughnessFactor": 0.9524317153998911
      }
    },
    {
      "doubleSided": true,
      "name": "SHOOSE",
      "pbrMetallicRoughness": {
        "baseColorFactor": [
          0.16,
          0.0693333,
          0.0,
          1.0
        ],
        "metallicFactor": 0.0,
        "roughnessFactor": 0.9524317153998911
      }
    },
    {
      "doubleSided": true,
      "name": "BODY",
      "pbrMetallicRoughness": {
        "baseColorFactor": [
          0.8834365490119371,
          0.0,
          0.0,
          1.0
        ],
        "metallicFactor": 0.0,
        "roughnessFactor": 0.9404129095015278
      }
    },
    {
      "doubleSided": true,
      "name": "EYE_BROWE",
      "pbrMetallicRoughness": {
        "baseColorFactor": [
          0.0,
          0.0,
          0.0,
          1.0
        ],
        "metallicFactor": 0.0,
        "roughnessFactor": 0.8962528479478358
      }
    },
    {
      "doubleSided": true,
      "name": "MIDEL_EYE",
      "pbrMetallicRoughness": {
        "baseColorFactor": [
          0.004265052413777713,
          0.0035366220097813633,
          0.026383080430379433,
          1.0
        ],
        "metallicFactor": 0.0,
        "roughnessFactor": 0.8962528479478358
      }
    },
    {
      "doubleSided": true,
      "name": "material_9",
      "pbrMetallicRoughness": {
        "metallicFactor": 0.0,
        "roughnessFactor": 0.8888065361086503
      }
    }
  ],
  "meshes": [
    {
      "name": "Null_LEG AND HAND_0",
      "primitives": [
        {
          "attributes": {
            "NORMAL": 1,
            "POSITION": 0,
            "TEXCOORD_0": 2
          },
          "indices": 3,
          "material": 0,
          "mode": 4
        }
      ]
    },
    {
      "name": "Null_MOTHE_0",
      "primitives": [
        {
          "attributes": {
            "NORMAL": 5,
            "POSITION": 4,
            "TEXCOORD_0": 6
          },
          "indices": 7,
          "material": 1,
          "mode": 4
        }
      ]
    },
    {
      "name": "Null_Mat_0",
      "primitives": [
        {
          "attributes": {
            "NORMAL": 9,
            "POSITION": 8,
            "TEXCOORD_0": 10
          },
          "indices": 11,
          "material": 2,
          "mode": 4
        }
      ]
    },
    {
      "name": "Null_GEERN PART_0",
      "primitives": [
        {
          "attributes": {
            "NORMAL": 13,
            "POSITION": 12,
            "TEXCOORD_0": 14
          },
          "indices": 15,
          "material": 3,
          "mode": 4
        }
      ]
    },
    {
      "name": "Null_gloves_0",
      "primitives": [
        {
          "attributes": {
            "NORMAL": 17,
            "POSITION": 16,
            "TEXCOORD_0": 18
          },
          "indices": 19,
          "material": 4,
          "mode": 4
        }
      ]
    },
    {
      "name": "Null_gloves_0",
      "primitives": [
        {
          "attributes": {
            "NORMAL": 21,
            "POSITION": 20,
            "TEXCOORD_0": 22
          },
          "indices": 23,
          "material": 4,
          "mode": 4
        }
      ]
    },
    {
      "name": "Null_gloves_0",
      "primitives": [
        {
          "attributes": {
            "NORMAL": 25,
            "POSITION": 24,
            "TEXCOORD_0": 26
          },
          "indices": 27,
          "material": 4,
          "mode": 4
        }
      ]
    },
    {
      "name": "Null_gloves_0",
      "primitives": [
        {
          "attributes": {
            "NORMAL": 29,
            "POSITION": 28,
            "TEXCOORD_0": 30
          },
          "indices": 31,
          "material": 4,
          "mode": 4
        }
      ]
    },
    {
      "name": "Null_SHOOSE_0",
      "primitives": [
        {
          "attributes": {
            "NORMAL": 33,
            "POSITION": 32,
            "TEXCOORD_0": 34
          },
          "indices": 35,
          "material": 5,
          "mode": 4
        }
      ]
    },
    {
      "name": "Null_BODY_0",
      "primitives": [
        {
          "attributes": {
            "NORMAL": 37,
            "POSITION": 36,
            "TEXCOORD_0": 38
          },
          "indices": 39,
          "material": 6,
          "mode": 4
        }
      ]
    },
    {
      "name": "Null_EYE BROWE_0",
      "primitives": [
        {
          "attributes": {
            "NORMAL": 41,
            "POSITION": 40,
            "TEXCOORD_0": 42
          },
          "indices": 43,
          "material": 7,
          "mode": 4
        }
      ]
    },
    {
      "name": "Null_MIDEL EYE_0",
      "primitives": [
        {
          "attributes": {
            "NORMAL": 45,
            "POSITION": 44,
            "TEXCOORD_0": 46
          },
          "indices": 47,
          "material": 8,
          "mode": 4
        }
      ]
    },
    {
      "name": "Null_EYE_0",
      "primitives": [
        {
          "attributes": {
            "NORMAL": 49,
            "POSITION": 48,
            "TEXCOORD_0": 50
          },
          "indices": 51,
          "material": 9,
          "mode": 4
        }
      ]
    }
  ],
  "nodes": [
    {
      "children": [
        1
      ],
      "matrix": [
        1.0,
        -1.6081226229577292e-16,
        -3.5707495248565405e-32,
        0.0,
        0.0,
        2.220446049250313e-16,
        -1.0,
        0.0,
        1.6081226229577292e-16,
        1.0,
        2.220446049250313e-16,
        0.0,
        0.0,
        0.0,
        0.0,
        1.0
      ],
      "name": "Sketchfab_model"
    },
    {
      "children": [
        2
      ],
      "matrix": [
        0.009999999776482582,
        0.0,
        0.0,
        0.0,
        0.0,
        0.0,
        0.009999999776482582,
        0.0,
        0.0,
        -0.009999999776482582,
        0.0,
        0.0,
        0.0,
        0.0,
        0.0,
        1.0
      ],
      "name": "a91b21f372da4f8ebd7bca8ba446714a.fbx"
    },
    {
      "children": [
        3,
        5
      ],
      "name": "RootNode"
    },
    {
      "children": [
        4
      ],
      "matrix": [
        -0.9915684231817183,
        -0.12368756504650297,
        -0.038645160134077955,
        0.0,
        -0.12359373401741822,
        0.9923212112279305,
        -0.004816913821585474,
        0.0,
        0.038944204453976325,
        3.252606517456513e-17,
        -0.9992413867226717,
        0.0,
        1839.9661865234375,
        177.69895935058594,
        -7.555351257324219,
        1.0
      ],
      "name": "CINEMA_4D_Editor"
    },
    {
      "name": "Object_4"
    },
    {
      "children": [
        6,
        7,
        8,
        9,
        10,
        11,
        12,
        13,
        14,
        15,
        16,
        17,
        18
      ],
      "matrix": [
        1.0,
        0.0,
        0.0,
        0.0,
        0.0,
        1.0,
        0.0,
        0.0,
        0.0,
        0.0,
        1.0,
        0.0,
        274.49017333984375,
        127.27349090576172,
        -9.321633338928223,
        1.0
      ],
      "name": "Null"
    },
    {
      "mesh": 0,
      "name": "Null_LEG AND HAND_0"
    },
    {
      "mesh": 1,
      "name": "Null_MOTHE_0"
    },
    {
      "mesh": 2,
      "name": "Null_Mat_0"
    },
    {
      "mesh": 3,
      "name": "Null_GEERN PART_0"
    },
    {
      "mesh": 4,
      "name": "Null_gloves_0"
    },
    {
      "mesh": 5,
      "name": "Null_gloves_0"
    },
    {
      "mesh": 6,
      "name": "Null_gloves_0"
    },
    {
      "mesh": 7,
      "name": "Null_gloves_0"
    },
    {
      "mesh": 8,
      "name": "Null_SHOOSE_0"
    },
    {
      "mesh": 9,
      "name": "Null_BODY_0"
    },
    {
      "mesh": 10,
      "name": "Null_EYE BROWE_0"
    },
    {
      "mesh": 11,
      "name": "Null_MIDEL EYE_0"
    },
    {
      "mesh": 12,
      "name": "Null_EYE_0"
    }
  ],
  "scene": 0,
  "scenes": [
    {
      "name": "Sketchfab_Scene",
      "nodes": [
        0
      ]
    }
  ]
}
